<?xml version="1.0" encoding="utf-8"?>
<!-- Generator: Adobe Illustrator 16.0.0, SVG Export Plug-In . SVG Version: 6.00 Build 0)  -->
<!DOCTYPE svg PUBLIC "-//W3C//DTD SVG 1.1//EN" "http://www.w3.org/Graphics/SVG/1.1/DTD/svg11.dtd">
<svg version="1.1" id="Layer_1" xmlns="http://www.w3.org/2000/svg" xmlns:xlink="http://www.w3.org/1999/xlink" x="0px" y="0px"
	 width="200px" height="200px" viewBox="0 0 200 200" enable-background="new 0 0 200 200" xml:space="preserve">
<path fill-rule="evenodd" clip-rule="evenodd" fill="#34AD72" d="M34.8,125.2c4.4,6.8,10.9,8.7,17.8,9.5c9.4,1.1,18.5-0.4,27.1-4.4
	c9-4.2,17.7-8.8,26.5-13.2c7.4-3.7,15.2-6.2,23.6-6.2c9.9,0,18.7,3.7,26.8,9.2c1,0.7,1.6,2.8,1.6,4.2c-0.4,26.5-20.7,50.9-47.5,57.2
	c-36.1,8.5-71.9-16.8-75.8-53.6C34.7,127.3,34.8,126.6,34.8,125.2z"/>
<path fill-rule="evenodd" clip-rule="evenodd" fill="#34AD72" d="M93.4,116.7c-13.3,9.2-27.1,14.6-43.1,11.7c-2.5-0.4-5-1.4-7.1-2.7
	c-3.8-2.3-4-6.2-0.7-9.3c7.1-6.7,15.9-7.9,25.1-7.4C76.5,109.5,85,112.2,93.4,116.7z"/>
<g>
	<g>
		<path fill="#5A5A5A" d="M119.6,80c-1.1,1-1.1,2.7-0.1,3.8c1,1.1,2.7,1.2,3.8,0.2c0.2-0.2,0.4-0.4,0.5-0.6c0.6-1,0.4-2.3-0.4-3.2
			C122.3,79.1,120.6,79,119.6,80z"/>
		<path fill="#5A5A5A" d="M115.4,95.2L115.4,95.2c1.5,4.1,2,5.1,3.7,5.2l3.5,0.2c0.7,0,1.8-0.2,2.5-1.6c0.4-0.7,1-2.2,1.5-3.3
			c3.8,1.9,4.9,2.3,6.2,1.1l2.9-2.6l0.2-0.4c0.6-1,0.5-1.6-1.1-5.6c4.2-1.5,4.4-1.8,4.8-2.5l0.3-0.5l0.1-4.2c0-1.7-0.9-2.3-4.9-3.9
			l0-0.1c1.8-3.7,2.2-4.9,1-6.2l-2.4-2.6c-1.2-1.3-2.4-1-6.2,0.6l0,0c-1.4-4-1.9-5-3.6-5.1l-3.5-0.2c-0.7-0.1-1.8,0.2-2.5,1.6
			c-0.4,0.7-1,2.2-1.5,3.2c-3.9-1.9-4.9-2.3-6.2-1.1l-2.9,2.6l-0.2,0.4c-0.6,1.1-0.5,1.7,1.1,5.6c-4.2,1.5-4.4,1.8-4.8,2.5l-0.3,0.5
			l-0.1,4.1c-0.1,1.8,1,2.4,4.8,4l0,0.1c-1.8,3.8-2.2,4.9-1,6.2l2.4,2.6C110.4,97.1,111.7,96.7,115.4,95.2z M127,76.9
			c2.2,2.4,2.7,6,1.1,8.8c-0.4,0.7-0.9,1.3-1.5,1.9c-3,2.8-7.9,2.6-10.7-0.5c-2.2-2.4-2.7-6-1.1-8.8c0.4-0.7,0.9-1.3,1.5-1.9
			C119.3,73.6,124.1,73.8,127,76.9z"/>
	</g>
</g>
<g>
	<g>
		<path fill="#5A5A5A" d="M92.6,34.6c1.4-3.5-0.5-7.6-4.2-9.1c-3.7-1.5-7.9,0.3-9.2,3.8c-1.4,3.5,0.5,7.6,4.2,9.1
			C87,39.8,91.2,38.1,92.6,34.6z"/>
		<path fill="#5A5A5A" d="M111.9,32.7l-0.1-1.7c5.4-5.3,5.7-6.1,5.9-6.5l0.4-1.1l-3.3-7c-0.9-1.9-1.9-2.1-10.7-1.7l-1.3-1.2
			c-0.2-8.9-0.5-9.6-2.3-10.3l-6.4-2.5c-1.9-0.7-2.6-0.4-8.5,6.1l-1.7,0c-6.7-6.4-7.4-6.6-9.2-5.9l-6.2,2.5c0,0-1.4,0.6-1.4,1.4
			c0,0.5-2.5,21.4-3.2,27.1c1.1,0,8.5,0,8.5,0c-0.1,0,0.3,16.9,0.3,16.9s-2.4,0.9-4,1.8c0.2,8.5,0.5,9.2,2.3,9.9l6.3,2.5
			c1.9,0.7,2.6,0.5,8.5-6.1l1.7,0c6.7,6.4,7.4,6.6,9.2,5.9l6.2-2.5l1-0.5l0.4-1c0.2-0.5,0.5-1.3-0.1-8.8l1.2-1.2
			c9.2,0.1,9.9-0.1,10.5-1.9l2.4-6C119.2,39.4,118.8,38.7,111.9,32.7z M97.6,36.6c-2.4,6.2-9.7,9.1-16.2,6.6
			c-6.5-2.6-9.8-9.7-7.4-15.8c2.4-6.2,9.7-9.1,16.2-6.5C96.7,23.3,100.1,30.4,97.6,36.6z"/>
	</g>
</g>
<path fill-rule="evenodd" clip-rule="evenodd" fill="#989899" d="M71.4,34.4c-3.1,0-5.8,0-8.7,0c0-9.3,0-18.3,0-27.5
	c24.6,0,49.1,0,73.8,0c0,9.1,0,18,0,27.3c-2.8,0-5.5,0-8.7,0c0,4.7-0.1,9,0.1,13.3c0,0.8,1.5,1.8,2.6,2.3
	c24.6,11.4,40.2,30.3,45.3,56.8c4.5,22.8-0.5,44.1-15.2,62.4c-17.1,21.4-39.7,31.2-67,29.6c-37-2.1-68.4-33.6-71.3-70.6
	c-2.9-36.1,18-65.7,46.2-77.9c2.3-1,3-2.2,2.9-4.6C71.3,41.9,71.4,38.3,71.4,34.4z M77.5,28.3c0,7.3-0.1,14.1,0.1,20.9
	c0.1,2.9-0.9,4.1-3.7,5.2C43,66.3,24.4,97.7,28.6,130.6c5,38.9,41.4,66.6,80.6,61.4c42.1-5.6,71.5-47.5,59-90.7
	c-6.5-22.6-21.3-38.4-43.3-47c-2.7-1.1-3.4-2.4-3.3-5.1c0.2-4.6,0.1-9.3,0.1-13.9c0-6.9,0-6.9,6.7-7.2c0.6,0,1.2-0.1,1.9-0.2
	c0-5.1,0-10.1,0-15c-20.7,0-41.1,0-61.5,0c0,5.2,0,10.1,0,15.3C71.8,28.3,74.3,28.3,77.5,28.3z"/>
<g>
	<g>
		<path fill="#5A5A5A" d="M78.5,94.9c-0.8,0.7-0.8,2,0,2.8c0.7,0.8,2,0.9,2.8,0.2c0.1-0.1,0.3-0.3,0.4-0.5c0.4-0.7,0.3-1.7-0.3-2.3
			C80.5,94.2,79.2,94.2,78.5,94.9z"/>
		<path fill="#5A5A5A" d="M75.5,105.9L75.5,105.9c1.1,3,1.4,3.7,2.7,3.8l2.5,0.1c0.5,0,1.3-0.1,1.8-1.1c0.3-0.5,0.7-1.6,1.1-2.4
			c2.8,1.4,3.6,1.7,4.5,0.8l2.1-1.9l0.1-0.3c0.4-0.7,0.4-1.2-0.8-4.1c3-1.1,3.2-1.3,3.5-1.8l0.2-0.4l0.1-3c0-1.3-0.7-1.7-3.5-2.9
			l0,0c1.3-2.7,1.6-3.5,0.7-4.5l-1.8-1.9c-0.9-0.9-1.7-0.7-4.5,0.4l0,0c-1-2.9-1.4-3.6-2.7-3.7l-2.5-0.1c-0.5,0-1.3,0.1-1.8,1.1
			c-0.3,0.5-0.7,1.6-1.1,2.4c-2.8-1.4-3.6-1.7-4.5-0.8l-2.1,1.9l-0.1,0.3c-0.4,0.8-0.4,1.3,0.8,4.1c-3.1,1.1-3.2,1.3-3.5,1.8
			L66.5,94l-0.1,3c0,1.3,0.7,1.7,3.5,2.9l0,0c-1.3,2.7-1.6,3.6-0.7,4.5l1.7,1.9C71.8,107.3,72.7,107,75.5,105.9z M83.8,92.6
			c1.6,1.8,1.9,4.3,0.8,6.4c-0.3,0.5-0.6,1-1.1,1.4c-2.2,2.1-5.7,1.9-7.8-0.4c-1.6-1.8-2-4.3-0.8-6.4c0.3-0.5,0.6-1,1.1-1.4
			C78.3,90.2,81.8,90.4,83.8,92.6z"/>
	</g>
</g>
</svg>
